<svg width="841" height="498" viewBox="0 0 841 498" fill="none" xmlns="http://www.w3.org/2000/svg">
<g clip-path="url(#clip0_4_84)">
<path d="M417.314 241.067C399.284 241.717 378.864 239.907 358.464 237.947C317.754 234.027 294.574 205.047 285.774 175.047C278.474 150.167 280.414 125.297 286.454 100.527C287.274 97.1772 287.274 94.1472 286.274 90.7772C278.604 65.1272 276.744 39.1372 282.594 12.8472C284.844 2.71717 288.294 -0.0828322 298.524 0.0571678C320.444 0.347168 341.074 5.31717 359.264 18.1372C361.924 20.0072 364.404 19.3072 366.874 18.5872C396.074 10.1372 425.654 9.80717 455.464 14.2872C457.434 14.5872 459.424 15.0172 461.284 15.7072C472.154 19.7872 481.354 17.9972 491.744 11.8572C506.734 3.01717 524.064 -0.172832 541.714 0.00716783C551.904 0.117168 555.414 2.78717 557.674 12.8572C563.554 38.9972 561.614 64.8272 553.994 90.3072C552.884 94.0172 552.934 97.3172 553.814 101.007C560.744 130.097 562.354 159.117 549.794 187.177C538.434 212.567 520.194 230.647 491.954 236.017C468.154 240.547 443.984 241.267 417.304 241.047L417.314 241.067ZM437.364 150.167C436.274 148.077 436.714 146.047 436.724 144.087C436.784 123.557 435.704 103.137 430.744 83.0972C429.534 78.2272 427.934 73.4972 425.154 69.2772C421.964 64.4472 418.284 64.4272 414.954 69.2172C413.044 71.9572 411.724 75.0172 410.754 78.2372C404.194 100.037 403.424 122.487 403.244 145.007C403.234 146.797 403.824 148.677 402.664 150.307C401.324 151.507 399.654 151.707 398.054 152.177C386.224 155.657 375.734 161.347 369.354 172.317C367.234 175.967 364.704 177.497 360.934 178.227C346.664 180.977 332.944 185.557 319.514 191.047C318.024 191.657 316.224 191.977 316.264 195.407C332.694 190.707 348.074 183.157 365.044 181.637C366.024 184.987 366.084 187.737 365.294 190.727C363.774 191.607 362.234 192.597 360.614 193.417C350.014 198.807 340.454 205.747 331.254 213.197C329.764 214.397 327.424 215.507 329.314 219.137C341.424 210.147 352.814 200.487 367.034 194.857C379.124 215.427 398.694 221.357 420.074 221.347C441.624 221.347 461.254 215.177 473.154 194.877C487.654 200.437 498.574 210.757 511.524 217.777C501.414 205.627 487.924 198.097 474.594 190.607C474.534 187.437 474.064 184.637 475.104 182.087C476.604 181.117 477.884 181.697 479.164 181.957C492.414 184.647 505.214 188.817 517.774 193.777C519.784 194.567 521.844 196.077 524.044 194.207C523.364 191.467 521.144 191.237 519.364 190.537C506.044 185.237 492.464 180.787 478.364 178.027C475.794 177.527 473.234 177.057 471.804 174.177C466.594 163.677 457.344 158.017 446.934 153.737C443.744 152.427 440.034 152.427 437.374 150.167H437.364ZM492.944 25.9472C515.554 37.4972 534.214 51.6172 543.654 75.8772C548.934 61.1972 549.144 24.8872 543.124 13.2872C526.154 12.9872 510.074 17.2372 492.944 25.9372V25.9472ZM296.114 74.1572C306.114 51.1672 324.724 37.4472 346.964 25.9372C330.244 17.1272 314.054 13.1072 296.244 13.3072C291.004 33.8872 291.974 53.8372 296.124 74.1572H296.114ZM360.414 155.177C378.304 155.617 392.954 140.637 393.364 121.477C393.764 102.897 379.484 86.7772 362.234 86.3472C344.094 85.8972 329.474 100.957 329.184 120.397C328.904 139.377 342.684 154.727 360.414 155.167V155.177ZM446.904 121.227C446.504 125.837 447.954 130.627 449.854 135.257C458.804 157.147 487.274 162.157 502.304 144.547C512.444 132.657 513.874 114.967 505.594 101.697C499.744 92.3272 491.264 86.8572 480.154 86.3972C461.874 85.6372 446.924 101.237 446.904 121.227Z" fill="white"/>
<path d="M394.424 191.438C399.334 200.238 406.464 201.598 414.514 197.238C418.864 194.888 418.414 190.378 417.424 185.838C410.744 183.978 406.164 179.788 404.184 173.008C402.374 166.818 403.974 163.168 409.764 160.388C415.934 157.418 422.274 157.238 428.654 159.618C436.214 162.428 438.364 167.548 435.214 175.048C433.124 180.018 430.734 182.128 422.334 186.288C421.664 190.358 420.974 194.838 425.444 197.218C433.514 201.508 440.684 200.478 445.604 191.408C448.294 195.048 446.854 197.388 444.884 199.468C439.824 204.788 430.714 204.488 419.984 198.788C410.024 204.308 400.444 204.778 395.454 199.748C393.424 197.698 391.304 195.278 394.424 191.438Z" fill="white"/>
<path d="M370.794 93.407C367.784 101.337 368.114 106.127 372.024 107.467C377.734 109.417 378.344 104.327 380.064 100.977C387.574 104.167 391.784 124.347 384.124 136.947C376.074 150.197 360.924 154.657 348.424 147.317C334.644 139.237 329.824 119.597 338.074 105.137C345.264 92.517 359.524 87.297 370.794 93.417V93.407Z" fill="white"/>
<path d="M489.024 93.5672C485.804 98.4472 483.764 103.807 489.594 107.207C494.714 110.197 496.024 104.647 497.734 101.307C506.514 105.997 508.744 123.697 502.404 135.927C495.534 149.177 480.114 154.567 467.624 148.097C452.944 140.487 447.494 121.207 455.624 105.637C462.324 92.7872 476.734 87.2972 489.034 93.5672H489.024Z" fill="white"/>
<path d="M545.38 345.02C554.26 344.24 562.71 344.54 571.15 344.8C573.05 344.86 573.83 346.61 574.78 347.95C602.4 387.37 629.99 426.81 657.64 466.22C659.21 468.45 660.54 470.98 664.04 473.35V345.15C670.19 344.31 675.44 344.54 681.33 344.92V493.91C672.94 494.72 664.54 494.65 656.15 493.96C654.2 493.8 653.36 491.75 652.31 490.26C624.52 450.75 596.74 411.24 568.92 371.75C567.45 369.66 566.22 367.27 562.99 365.22V493.63C556.81 494.81 551.32 494.65 545.39 493.8V345.02H545.38Z" fill="white"/>
<path d="M278.76 494.15C271.97 494.86 266.38 494.71 260.28 494.29V345.38C261.61 344.04 263.36 344.38 264.97 344.38C284.97 344.36 304.97 344.04 324.96 344.47C344.5 344.89 359.35 353.76 367.1 372.01C375.76 392.38 363.79 416.69 342.03 424.54C340.49 425.1 338.76 425.26 336.99 427.21C350.69 449.08 364.49 471.13 379.01 494.31C371.59 494.69 365.27 495.05 358.93 494.07C357.32 493.82 356.84 492.06 356.05 490.81C343.8 471.38 331.54 451.95 319.26 432.53C318.29 431 317.2 429.55 316.18 428.08H278.75V494.15H278.76ZM278.98 409.66C280.06 410.12 280.51 410.49 280.96 410.49C296.78 410.5 312.63 411.02 328.42 410.28C339.69 409.75 349.34 400.15 350.9 389.98C353.09 375.64 342.33 362.27 327.4 361.74C312.59 361.21 297.75 361.53 282.92 361.49C281.6 361.49 280.22 361.49 278.98 363.09V409.66Z" fill="white"/>
<path d="M704.28 345.47C705.47 345.14 706.1 344.8 706.72 344.8C728.85 345.03 751.14 342.75 773.08 346.08C807.81 351.35 839.45 378.38 840.25 417.9C840.79 444.63 828.23 464.71 806.56 479.46C791.05 490.02 773.59 494.19 755.03 494.26C739.71 494.33 724.39 494.3 709.06 494.3C707.57 494.3 706.04 494.36 704.29 492.95V345.47H704.28ZM721.59 476.95C723.05 477.29 724 477.7 724.95 477.7C738.43 477.7 751.98 478.47 765.38 477.39C781.75 476.08 795.99 468.83 806.39 456.01C833.54 422.54 818.45 375.35 776.89 363.57C759.33 358.59 741.2 360.9 723.28 361.13C722.86 361.13 722.45 361.62 721.58 362.16V476.93L721.59 476.95Z" fill="white"/>
<path d="M112.43 344.49C118.06 344.2 123.65 343.97 129.02 344.62C130.66 346.92 130.12 349.16 130.12 351.26C130.16 380.09 130.87 408.94 129.94 437.75C129.08 464.47 148.65 476.86 168.28 479.37C179.18 480.77 189.96 479.54 199.97 474.57C214.27 467.47 221.64 456.13 221.53 439.85C221.34 410.52 221.48 381.19 221.49 351.86C221.49 349.71 221.49 347.57 221.49 344.85C227.64 343.84 233.35 344.39 238.75 344.44C240.63 346.77 240.05 349.02 240.06 351.12C240.1 379.95 239.28 408.81 240.32 437.6C241.42 467.9 221.93 486.51 199.24 493.33C172.65 501.32 147.74 497.58 126.64 478.09C117.89 470.01 112.53 459.92 111.79 447.89C110.94 433.92 111.22 419.91 111.38 405.91C111.59 387.25 111.41 368.59 111.38 349.92C111.38 348.26 111.14 346.58 112.43 344.48V344.49Z" fill="white"/>
<path d="M391.55 344.71H491.48C492.5 350.07 492.2 355.25 491.68 361.32H410.24V408.62H486.45C487.71 414.56 487.99 419.71 486.68 425.57H409.99V493.74C403.53 495.04 397.85 494.6 391.56 494.18V344.71H391.55Z" fill="white"/>
<path d="M19.12 361.46V408.42H95.59C96.5 414.52 96.13 419.77 95.92 425.74H18.68V494.41H0V344.71H99.89C101.15 348.92 101.2 355.89 99.84 361.46H19.13H19.12Z" fill="white"/>
<path d="M522.93 493.88C516.91 494.67 511.51 494.59 505.53 493.99V344.95C511.36 344.16 516.92 344.4 522.93 344.83V493.88Z" fill="white"/>
</g>
<defs>
<clipPath id="clip0_4_84">
<rect width="840.267" height="497.266" fill="white"/>
</clipPath>
</defs>
</svg>
